<?xml version="1.0" standalone="no"?><!DOCTYPE svg PUBLIC "-//W3C//DTD SVG 1.1//EN" "http://www.w3.org/Graphics/SVG/1.1/DTD/svg11.dtd"><svg t="1571044002822" class="icon" viewBox="0 0 1024 1024" version="1.1" xmlns="http://www.w3.org/2000/svg" p-id="3966" xmlns:xlink="http://www.w3.org/1999/xlink" width="200" height="200"><defs><style type="text/css"></style></defs><path d="M896 170.666667H128c-46.933333 0-85.333333 38.4-85.333333 85.333333v554.666667c0 46.933333 38.4 85.333333 85.333333 85.333333h768c46.933333 0 85.333333-38.4 85.333333-85.333333V256c0-46.933333-38.4-85.333333-85.333333-85.333333z m0 597.333333c0 23.466667-19.2 42.666667-42.666667 42.666667h-341.333333V256h341.333333c23.466667 0 42.666667 19.2 42.666667 42.666667v469.333333z m-74.666667-362.666667h-234.666666c-17.493333 0-32 14.506667-32 32s14.506667 32 32 32h234.666666c17.493333 0 32-14.506667 32-32s-14.506667-32-32-32z m0 106.666667h-234.666666c-17.493333 0-32 14.506667-32 32s14.506667 32 32 32h234.666666c17.493333 0 32-14.506667 32-32s-14.506667-32-32-32z m0 106.666667h-234.666666c-17.493333 0-32 14.506667-32 32s14.506667 32 32 32h234.666666c17.493333 0 32-14.506667 32-32s-14.506667-32-32-32z" p-id="3967" fill="#ffffff"></path></svg>